<?xml version="1.0" encoding="utf-8"?>
<!-- Generator: Adobe Illustrator 24.2.3, SVG Export Plug-In . SVG Version: 6.00 Build 0)  -->
<svg version="1.1" id="Layer_1" xmlns="http://www.w3.org/2000/svg" xmlns:xlink="http://www.w3.org/1999/xlink" x="0px" y="0px"
	 viewBox="0 0 186.2 186.6" style="enable-background:new 0 0 186.2 186.6;" xml:space="preserve">
<style type="text/css">
	.st0{fill:#F4BC19;}
</style>
<g>
	<g>
		<path class="st0" d="M83.5,117.5c1.6,3.4,3,7,4.1,10.6c2.5-4.6,5.5-8.9,8.8-12.8c-0.4-1.1-0.9-2.2-1.4-3.3c-1.4-3-3.2-5.8-5.2-8.4
			c-3,3.4-5.5,7.3-7.5,11.5C82.7,115.9,83.1,116.7,83.5,117.5z"/>
		<path class="st0" d="M100.8,64.7C86.7,50.6,78,31.1,78,9.5c0,21.5-8.7,41-22.8,55.2C41,78.8,21.5,87.5,0,87.5
			c21.5,0,41,8.7,55.2,22.8C69.3,124.5,78,144,78,165.5c0-13.1,3.2-25.4,8.9-36.2c-1.2-3.9-2.6-7.7-4.4-11.4
			c-0.3-0.5-0.5-1.1-0.8-1.6c-2.4,5.7-3.7,11.9-3.7,18.4c0-13-5.3-24.8-13.8-33.4c-8.5-8.5-20.3-13.8-33.4-13.8
			c13,0,24.8-5.3,33.4-13.8S78,53.4,78,40.4c0,13,5.3,24.8,13.8,33.4c8.5,8.5,20.3,13.8,33.4,13.8c-13,0-24.8,5.3-33.4,13.8
			c-0.5,0.5-0.9,1-1.4,1.5c2.1,2.7,4,5.6,5.5,8.7c0.5,0.9,0.9,1.9,1.2,2.9c1.2-1.4,2.4-2.7,3.7-4C115,96.3,134.4,87.5,156,87.5
			C134.5,87.5,115,78.8,100.8,64.7z"/>
	</g>
	<g>
		<path class="st0" d="M107.5,84.1c3.4-2,6.5-4.4,9.3-7.1c-3.6-2.1-7-4.5-10.2-7.1c-2.6,1.6-5.3,3.2-8,4.5c-1.3,0.6-2.7,1.2-4.1,1.8
			C98.4,79.5,102.8,82.2,107.5,84.1z"/>
		<path class="st0" d="M141.7,89.6c-8.6-18-10.4-39.3-3.2-59.6c-5.9,16.8-17.1,30.3-30.9,39.4c3.2,2.6,6.5,4.9,10,6.9
			c4.6-4.8,8.3-10.6,10.7-17.2c-4.3,12.3-3.3,25.2,2,36.1c5.2,10.9,14.6,19.8,26.9,24.1c-12.3-4.3-25.2-3.3-36.1,2
			s-19.8,14.6-24.1,26.9c4.3-12.3,3.3-25.2-2-36.1c-5.2-10.9-14.6-19.8-26.9-24.1c12.3,4.3,25.2,3.3,36.1-2c0.8-0.4,1.5-0.8,2.3-1.2
			c-4.7-2-9-4.7-12.9-8.1c-16.8,6.6-36.1,7.5-54.5,1c20.3,7.1,35.8,21.9,44.4,39.9s10.4,39.3,3.2,59.6c7.1-20.3,21.9-35.8,39.9-44.4
			c18-8.6,39.3-10.4,59.6-3.2C165.9,122.3,150.4,107.5,141.7,89.6z"/>
	</g>
</g>
</svg>
