<?xml version="1.0" encoding="utf-8"?>
<!-- Generator: Adobe Illustrator 24.2.3, SVG Export Plug-In . SVG Version: 6.00 Build 0)  -->
<svg version="1.1" id="Layer_1" xmlns="http://www.w3.org/2000/svg" xmlns:xlink="http://www.w3.org/1999/xlink" x="0px" y="0px"
	 viewBox="0 0 80.52 111.22" style="enable-background:new 0 0 80.52 111.22;" xml:space="preserve">
<style type="text/css">
	.st0{fill:#F4BC19;}
</style>
<path class="st0" d="M40.26,80.52c0-8.35,3.39-25.92,8.86-31.4s23.04-8.86,31.4-8.86c-8.35,0-25.92-3.39-31.4-8.86
	S40.26,8.35,40.26,0c0,8.35-3.39,25.92-8.86,31.4C25.92,36.87,8.35,40.26,0,40.26c8.35,0,25.92,3.39,31.4,8.86
	C36.87,54.59,40.26,72.16,40.26,80.52z"/>
<path class="st0" d="M40.26,91.52c0-8.35-3.39-32.93-8.86-38.4c-2.55-2.55-7.74-4.65-13.4-6.17c4.56,2.28,8.42,5.01,10.68,8.11
	c7.15,9.79,11.58,41.22,11.58,56.16c0-14.94,4.42-46.37,11.58-56.16c2.27-3.1,6.13-5.83,10.68-8.11c-5.66,1.51-10.85,3.61-13.4,6.17
	C43.64,58.6,40.26,83.17,40.26,91.52z"/>
</svg>
