<svg id="Layer_1" data-name="Layer 1" xmlns="http://www.w3.org/2000/svg" viewBox="0 0 317.71 251.19"><defs><style>.cls-1{fill:#f4bc19;}</style></defs><path class="cls-1" d="M71,85.24h0a415.35,415.35,0,0,1,55.17-36.06A393.88,393.88,0,0,1,186.5,22.5c2.61-.87,5.2-1.83,7.84-2.63l7.89-2.46,8-2.26c2.66-.75,5.34-1.39,8-2.09q16-4,32.41-6.61a362.1,362.1,0,0,1,66-4.39,363.15,363.15,0,0,0-66.22,3.15q-16.46,2.3-32.67,6c-2.7.65-5.4,1.24-8.08,1.95l-8,2.12-8,2.32c-2.67.76-5.29,1.67-7.93,2.49a397.47,397.47,0,0,0-61.34,25.74A419.28,419.28,0,0,0,67.94,81.25l0,0a2.5,2.5,0,0,0,3.06,4Z" transform="translate(1.06 -1.7)"/><path class="cls-1" d="M204.13,57.69c-11.78,6.69-23.25,13.94-34.42,21.63l-4.18,2.9-2.09,1.45-2.05,1.5-8.2,6c-5.36,4.15-10.75,8.28-15.94,12.64q-15.7,13-30.26,27.23a473.39,473.39,0,0,0-53,61.86l0,0a2.5,2.5,0,1,0,4.1,2.85h0a467.63,467.63,0,0,1,51.52-62.08q14.19-14.38,29.61-27.5c5.1-4.41,10.39-8.59,15.66-12.8L163,87.31l2-1.52L167,84.32l4.12-2.95c11-7.82,22.29-15.22,33.92-22.06s23.57-13.18,35.76-19A470.17,470.17,0,0,1,316.64,11.8,471.21,471.21,0,0,0,240.3,39.18Q221.84,47.66,204.13,57.69Z" transform="translate(1.06 -1.7)"/><path class="cls-1" d="M151.68,144.13a30.25,30.25,0,0,1-30.25,30.25,30.25,30.25,0,0,1,30.25,30.25,30.25,30.25,0,0,1,30.25-30.25,30.25,30.25,0,0,1-30.25-30.25Z" transform="translate(1.06 -1.7)"/><path class="cls-1" d="M231.51,78q-9.4,8.2-18.18,17.09t-16.78,18.5a350.06,350.06,0,0,0-29.31,40.46l0,.05a2.5,2.5,0,1,0,4.31,2.53h0A345,345,0,0,1,199.45,116q7.71-9.64,16.14-18.71t17.58-17.38a285.41,285.41,0,0,1,39.27-30.07,256.19,256.19,0,0,1,44.2-22.4,256.23,256.23,0,0,0-44.85,21.34A287.14,287.14,0,0,0,231.51,78Z" transform="translate(1.06 -1.7)"/><path class="cls-1" d="M52.2,132.8a30.25,30.25,0,0,1,30.25-30.25A30.25,30.25,0,0,1,52.2,72.3,30.25,30.25,0,0,1,22,102.55,30.25,30.25,0,0,1,52.2,132.8Z" transform="translate(1.06 -1.7)"/><path class="cls-1" d="M39.19,252.9c0-8.36,3.39-25.93,8.86-31.4s23-8.86,31.4-8.86c-8.35,0-25.92-3.39-31.4-8.86s-8.86-23.05-8.86-31.4c0,8.35-3.38,25.92-8.86,31.4s-23,8.86-31.39,8.86c8.35,0,25.92,3.38,31.39,8.86S39.19,244.54,39.19,252.9Z" transform="translate(1.06 -1.7)"/></svg>