<?xml version="1.0" encoding="utf-8"?>
<!-- Generator: Adobe Illustrator 24.2.3, SVG Export Plug-In . SVG Version: 6.00 Build 0)  -->
<svg version="1.1" id="Layer_1" xmlns="http://www.w3.org/2000/svg" xmlns:xlink="http://www.w3.org/1999/xlink" x="0px" y="0px"
	 viewBox="0 0 157.95 203.41" style="enable-background:new 0 0 157.95 203.41;" xml:space="preserve">
<style type="text/css">
	.st0{fill:url(#SVGID_1_);}
	.st1{fill:url(#SVGID_2_);}
	.st2{fill:url(#SVGID_3_);}
</style>
<g>
	<linearGradient id="SVGID_1_" gradientUnits="userSpaceOnUse" x1="359.8817" y1="-318.9261" x2="-97.6438" y2="248.9164">
		<stop  offset="0" style="stop-color:#B6862D"/>
		<stop  offset="0.176" style="stop-color:#F3BB1A"/>
		<stop  offset="0.405" style="stop-color:#C5932C"/>
		<stop  offset="0.6117" style="stop-color:#DBA628"/>
		<stop  offset="0.7542" style="stop-color:#EDB61E"/>
		<stop  offset="0.8687" style="stop-color:#DEA926"/>
		<stop  offset="0.8751" style="stop-color:#E0AB25"/>
		<stop  offset="0.9414" style="stop-color:#F2BB1A"/>
		<stop  offset="0.986" style="stop-color:#FAC212"/>
	</linearGradient>
	<path class="st0" d="M102.04,38.63c-8.35,0-15.92-3.39-21.39-8.86c-5.47-5.47-8.86-13.04-8.86-21.39c0,8.35-3.39,15.92-8.86,21.39
		c-5.47,5.47-13.04,8.86-21.39,8.86c8.35,0,15.92,3.39,21.39,8.86c5.47,5.47,8.86,13.04,8.86,21.39c0-8.35,3.39-15.92,8.86-21.39
		C86.12,42.02,93.68,38.63,102.04,38.63z"/>
	<linearGradient id="SVGID_2_" gradientUnits="userSpaceOnUse" x1="436.8571" y1="-317.5671" x2="-20.6684" y2="250.2755">
		<stop  offset="0" style="stop-color:#B6862D"/>
		<stop  offset="0.176" style="stop-color:#F3BB1A"/>
		<stop  offset="0.405" style="stop-color:#C5932C"/>
		<stop  offset="0.6117" style="stop-color:#DBA628"/>
		<stop  offset="0.7542" style="stop-color:#EDB61E"/>
		<stop  offset="0.8687" style="stop-color:#DEA926"/>
		<stop  offset="0.8751" style="stop-color:#E0AB25"/>
		<stop  offset="0.9414" style="stop-color:#F2BB1A"/>
		<stop  offset="0.986" style="stop-color:#FAC212"/>
	</linearGradient>
	<path class="st1" d="M152.3,85.56c-8.35,0-25.92-3.39-31.4-8.86c-5.47-5.47-8.86-23.04-8.86-31.4c0,8.35-3.39,25.92-8.86,31.4
		c-5.47,5.47-23.04,8.86-31.4,8.86c8.35,0,25.92,3.39,31.4,8.86c5.47,5.47,8.86,23.04,8.86,31.4c0-8.35,3.39-25.92,8.86-31.4
		C126.38,88.95,143.95,85.56,152.3,85.56z"/>
	<linearGradient id="SVGID_3_" gradientUnits="userSpaceOnUse" x1="427.2244" y1="-316.075" x2="-30.3011" y2="251.7675">
		<stop  offset="0" style="stop-color:#B6862D"/>
		<stop  offset="0.176" style="stop-color:#F3BB1A"/>
		<stop  offset="0.405" style="stop-color:#C5932C"/>
		<stop  offset="0.6117" style="stop-color:#DBA628"/>
		<stop  offset="0.7542" style="stop-color:#EDB61E"/>
		<stop  offset="0.8687" style="stop-color:#DEA926"/>
		<stop  offset="0.8751" style="stop-color:#E0AB25"/>
		<stop  offset="0.9414" style="stop-color:#F2BB1A"/>
		<stop  offset="0.986" style="stop-color:#FAC212"/>
	</linearGradient>
	<path class="st2" d="M106.18,144.76c-8.35,0-35.93-3.39-41.41-8.86c-5.47-5.47-8.86-33.05-8.86-41.41c0,8.35-3.39,35.93-8.86,41.41
		c-5.47,5.47-33.05,8.86-41.41,8.86c8.35,0,35.93,3.39,41.41,8.86c5.47,5.47,8.86,33.05,8.86,41.41c0-8.35,3.39-35.93,8.86-41.41
		C70.25,148.15,97.83,144.76,106.18,144.76z"/>
</g>
</svg>
