<svg id="Layer_1" data-name="Layer 1" xmlns="http://www.w3.org/2000/svg" viewBox="0 0 156 156"><defs><style>.cls-1{fill:#f4bc19;}</style></defs><path class="cls-1" d="M101.82,55.15A77.8,77.8,0,0,1,79,0,77.79,77.79,0,0,1,56.13,55.15,77.78,77.78,0,0,1,1,78a77.78,77.78,0,0,1,55.16,22.85A77.79,77.79,0,0,1,79,156a78,78,0,0,1,78-78A77.78,77.78,0,0,1,101.82,55.15ZM89.67,88.69A36.42,36.42,0,0,0,79,114.5,36.5,36.5,0,0,0,42.47,78,36.5,36.5,0,0,0,79,41.5,36.52,36.52,0,0,0,115.48,78,36.38,36.38,0,0,0,89.67,88.69Z" transform="translate(-0.97)"/><path class="cls-1" d="M91.5,78A12.53,12.53,0,0,1,79,65.47,12.51,12.51,0,0,1,66.45,78,12.51,12.51,0,0,1,79,90.53,12.53,12.53,0,0,1,91.5,78Z" transform="translate(-0.97)"/></svg>